<?xml version="1.0" standalone="no"?>
<!DOCTYPE svg PUBLIC "-//W3C//DTD SVG 20010904//EN"
 "http://www.w3.org/TR/2001/REC-SVG-20010904/DTD/svg10.dtd">
<svg version="1.0" xmlns="http://www.w3.org/2000/svg"
 width="74.000000pt" height="74.000000pt" viewBox="0 0 74.000000 74.000000"
 preserveAspectRatio="xMidYMid meet">
<metadata>
Created by potrace 1.11, written by Peter Selinger 2001-2013
</metadata>
<g transform="translate(0.000000,74.000000) scale(0.100000,-0.100000)"
fill="#000000" stroke="none">
<path d="M316 645 c-15 -22 -15 -25 0 -33 13 -7 6 -12 -32 -21 -27 -7 -59 -13
-72 -14 -24 -1 -27 -8 -13 -35 15 -26 31 -106 31 -151 0 -41 -20 -71 -46 -71
-23 0 -27 23 -28 163 -1 95 -4 131 -13 135 -14 4 -15 -3 -13 -189 1 -88 -2
-119 -13 -127 -11 -9 -12 -24 -5 -68 6 -38 5 -60 -2 -69 -19 -23 -20 -52 -2
-52 10 0 23 4 30 10 8 6 12 6 12 -3 0 -6 6 -10 13 -7 6 2 20 0 31 -5 14 -8 17
-7 10 4 -5 8 3 6 20 -6 16 -10 26 -14 22 -8 -3 5 3 12 14 15 12 3 24 -1 30
-11 7 -13 9 -13 10 -3 0 8 3 11 7 8 3 -4 13 -1 21 6 11 8 14 8 9 0 -4 -6 -3
-14 3 -18 5 -3 10 -2 10 3 0 5 7 9 15 9 8 0 15 -5 15 -11 0 -6 5 -4 10 4 8 12
11 13 19 1 7 -11 9 -11 13 0 4 11 8 12 20 2 11 -10 17 -10 26 -1 9 9 12 9 12
-3 0 -12 2 -12 10 1 5 8 10 11 10 6 0 -5 8 0 18 11 9 11 31 29 47 39 57 35
105 79 105 95 0 10 -12 19 -31 23 -30 6 -31 7 -24 43 4 21 8 43 9 48 1 6 5 15
9 22 11 18 -21 76 -39 69 -8 -3 -21 -9 -29 -12 -11 -4 -13 -2 -9 9 3 9 -3 23
-15 34 -12 9 -21 28 -21 41 0 30 -25 78 -47 90 -11 7 -31 6 -59 -3 -24 -7 -45
-10 -48 -7 -11 10 -6 21 12 25 14 4 14 6 -5 12 -13 4 -23 11 -23 16 0 17 -18
9 -34 -16z m134 -355 c-6 -11 -17 -17 -25 -14 -20 8 -19 21 2 33 24 13 35 4
23 -19z"/>
</g>
</svg>
